<svg xmlns="http://www.w3.org/2000/svg" style="display:none">

  <symbol id="icon-home" viewBox="0 0 24 24">
    <path d="M3 10l9-7 9 7v10a2 2 0 0 1-2 2h-4v-6h-6v6H5a2 2 0 0 1-2-2z"/>
  </symbol>

  <symbol id="icon-grid" viewBox="0 0 24 24">
    <rect x="3" y="3" width="7" height="7"/>
    <rect x="14" y="3" width="7" height="7"/>
    <rect x="3" y="14" width="7" height="7"/>
    <rect x="14" y="14" width="7" height="7"/>
  </symbol>

  <symbol id="icon-user" viewBox="0 0 24 24">
    <circle cx="12" cy="7" r="4"/>
    <path d="M5.5 21a6.5 6.5 0 0 1 13 0"/>
  </symbol>

  <symbol id="icon-phone" viewBox="0 0 24 24">
    <path d="M22 16.92v3a2 2 0 0 1-2.18 2
             19.79 19.79 0 0 1-8.63-3.07
             19.5 19.5 0 0 1-6-6
             19.79 19.79 0 0 1-3.07-8.67
             A2 2 0 0 1 4.11 2h3
             a2 2 0 0 1 2 1.72
             12.84 12.84 0 0 0 .7 2.81
             2 2 0 0 1-.45 2.11L8.09 9.91
             a16 16 0 0 0 6 6l1.27-1.27
             a2 2 0 0 1 2.11-.45
             12.84 12.84 0 0 0 2.81.7
             A2 2 0 0 1 22 16.92z"/>
  </symbol>

  <symbol id="icon-send" viewBox="0 0 24 24">
    <path d="M22 2L11 13"/>
    <path d="M22 2L15 22l-4-9-9-4z"/>
  </symbol>

</svg>